<?xml version="1.0" encoding="UTF-8"?>
<svg version="1.1" xmlns="http://www.w3.org/2000/svg" width="300" height="131">
<!-- Nền đen đã được loại bỏ để trong suốt -->
<path d="M0 0 C1.47919922 -0.01836914 1.47919922 -0.01836914 2.98828125 -0.03710938 C9.80721354 -0.05076545 15.64760772 -0.04400278 21.125 4.4375 C26.342297 10.81419633 26.342297 10.81419633 26.40234375 15.171875 C26.06651802 18.4202257 25.48367694 20.94841074 24.125 23.9375 C23.8775 24.68 23.63 25.4225 23.375 26.1875 C24.62995687 28.36078198 24.62995687 28.36078198 26.375 30.1875 C27.82432983 34.53548948 27.89169065 38.64345345 27.375 43.1875 C24.76179161 48.32058791 21.83562759 51.3672908 16.375 53.1875 C14.23705475 53.2708804 12.09657991 53.29483747 9.95703125 53.28515625 C8.70341797 53.28193359 7.44980469 53.27871094 6.15820312 53.27539062 C4.84787109 53.26701172 3.53753906 53.25863281 2.1875 53.25 C0.85221519 53.24498317 -0.48307141 53.24042059 -1.81835938 53.23632812 C-5.08728473 53.22452695 -8.35611991 53.20806297 -11.625 53.1875 C-11.65026692 45.80021898 -11.6678316 38.41294902 -11.67993164 31.02563477 C-11.68497363 28.51033105 -11.69180703 25.99503028 -11.70043945 23.47973633 C-11.71251094 19.87320225 -11.71822949 16.26670677 -11.72265625 12.66015625 C-11.72781754 11.52788101 -11.73297882 10.39560577 -11.73829651 9.22901917 C-11.73837204 8.18801559 -11.73844757 7.14701202 -11.73852539 6.07446289 C-11.740746 5.15290909 -11.74296661 4.23135529 -11.74525452 3.28187561 C-11.44285163 -1.98483085 -3.99939694 0.00255389 0 0 Z " fill="#0A4F9A" transform="translate(38.625,38.8125)"/>
<path d="M0 0 C10 0 10 0 12.375 1.6953125 C12.91125 2.49710938 13.4475 3.29890625 14 4.125 C14.94359375 5.47078125 14.94359375 5.47078125 15.90625 6.84375 C16.5971875 7.8853125 17.288125 8.926875 18 10 C19.32173339 11.85513322 20.6586654 13.69859927 21.99804688 15.54101562 C24.01949364 18.34580587 26.00621883 21.17547668 28 24 C28.33 16.41 28.66 8.82 29 1 C33.62 1 38.24 1 43 1 C43 18.16 43 35.32 43 53 C32 53 32 53 29.52734375 51.0859375 C29.00269531 50.19132812 28.47804687 49.29671875 27.9375 48.375 C27.31746094 47.38628906 26.69742188 46.39757812 26.05859375 45.37890625 C25.37925781 44.26386719 24.69992188 43.14882812 24 42 C22.69191485 40.11065186 21.35347791 38.2465253 20.00415039 36.38647461 C17.9856599 33.60331007 15.99571332 30.79954229 14 28 C13.67 36.25 13.34 44.5 13 53 C8.71 53 4.42 53 0 53 C0 35.51 0 18.02 0 0 Z " fill="#0A4F99" transform="translate(124,39)"/>
<path d="M0 0 C4.83717477 2.10651159 7.58048668 5.34404617 9.65625 10.08984375 C11.05344973 13.97742264 12.31874897 17.70875681 11.6875 21.875 C9.6875 23.875 9.6875 23.875 7.25732422 24.10205078 C6.2623291 24.09157715 5.26733398 24.08110352 4.2421875 24.0703125 C3.16582031 24.06386719 2.08945313 24.05742188 0.98046875 24.05078125 C-0.14746094 24.03402344 -1.27539062 24.01726562 -2.4375 24 C-3.57316406 23.99097656 -4.70882812 23.98195313 -5.87890625 23.97265625 C-8.69031299 23.94903098 -11.50130298 23.91609013 -14.3125 23.875 C-13.04657275 25.43886133 -13.04657275 25.43886133 -11.3125 26.875 C-7.26569851 27.14036403 -4.12127641 27.06910634 -0.1875 26.125 C3.83315296 25.775378 5.59924198 27.44851156 8.6875 29.875 C8.375 31.8125 8.375 31.8125 7.6875 33.875 C6.6975 34.205 5.7075 34.535 4.6875 34.875 C4.6875 35.535 4.6875 36.195 4.6875 36.875 C-2.53861861 39.50267949 -10.40751961 40.22399322 -17.75 37.6875 C-22.92428727 34.02763827 -26.78023545 30.16907132 -28.3125 23.875 C-29.18036087 16.6992723 -28.71755135 11.6711202 -24.3125 5.875 C-17.20429125 -1.25221466 -9.65004861 -3.09460762 0 0 Z " fill="#0A509A" transform="translate(200.3125,54.125)"/>
<path d="M0 0 C9.57 0 19.14 0 29 0 C30.09338588 6.56031529 29.33473942 9.51850561 25.81103516 14.77294922 C24.51767217 16.52986915 23.18029128 18.2380047 21.8125 19.9375 C21.34908203 20.52595703 20.88566406 21.11441406 20.40820312 21.72070312 C19.2790017 23.15257709 18.14047105 24.57708584 17 26 C21.29 26.33 25.58 26.66 30 27 C30 30.63 30 34.26 30 38 C20.1 38 10.2 38 0 38 C0 26.34725348 4.85594627 20.82500754 12 12 C8.04 12 4.08 12 0 12 C0 8.04 0 4.08 0 0 Z " fill="#19538F" transform="translate(88,54)"/>
<path d="M0 0 C0 3.3 0 6.6 0 10 C2.64 10 5.28 10 8 10 C8 13.96 8 17.92 8 22 C5.36 22 2.72 22 0 22 C0 26.62 0 31.24 0 36 C2.64 36.33 5.28 36.66 8 37 C8 40.63 8 44.26 8 48 C5.93816367 48.08150744 3.87538651 48.1394194 1.8125 48.1875 C0.08966797 48.23970703 0.08966797 48.23970703 -1.66796875 48.29296875 C-5.37578894 47.96695877 -7.13139886 47.3488901 -10 45 C-12.72905592 40.59592472 -12.22776596 35.69536423 -12.125 30.6875 C-12.11597656 29.85154297 -12.10695313 29.01558594 -12.09765625 28.15429688 C-12.07420989 26.10274031 -12.03834266 24.05133223 -12 22 C-12.804375 21.855625 -13.60875 21.71125 -14.4375 21.5625 C-17 21 -17 21 -18 20 C-18.07205511 18.31391034 -18.08386068 16.62499341 -18.0625 14.9375 C-18.05347656 14.01839844 -18.04445312 13.09929688 -18.03515625 12.15234375 C-18.02355469 11.44207031 -18.01195312 10.73179688 -18 10 C-16.02 10 -14.04 10 -12 10 C-12.103125 9.071875 -12.20625 8.14375 -12.3125 7.1875 C-12.209375 6.135625 -12.10625 5.08375 -12 4 C-8.1601673 0.9904014 -4.8718961 0 0 0 Z " fill="#0D5198" transform="translate(269,44)"/>
<path d="M0 0 C2.27645169 1.30082954 2.84615552 2.50943931 3.62109375 4.98046875 C4.13279449 6.97433713 4.57094234 8.98672945 5 11 C7.87364791 11.41746608 7.87364791 11.41746608 11 11 C13.04308411 8.39330648 13.95446418 6.13660747 15 3 C15.66 3 16.32 3 17 3 C17.33 2.01 17.66 1.02 18 0 C23.4 -0.36 23.4 -0.36 25.875 1.125 C27.52854531 3.88090884 27.39365568 5.85075452 27 9 C24.81149732 12.4758572 20.67059562 13.54561306 17 15 C17 17.31 17 19.62 17 22 C17.63808594 22.19335938 18.27617187 22.38671875 18.93359375 22.5859375 C20.17302734 22.97652344 20.17302734 22.97652344 21.4375 23.375 C22.67306641 23.75785156 22.67306641 23.75785156 23.93359375 24.1484375 C26 25 26 25 27 27 C27.44720497 32.25465839 27.44720497 32.25465839 25.875 34.875 C23.11909116 36.52854531 21.14924548 36.39365568 18 36 C14.5241428 33.81149732 13.45438694 29.67059562 12 26 C9.62694422 25.58219121 9.62694422 25.58219121 7 26 C5.26555157 28.31259791 4.16736787 30.64557393 2.9375 33.25 C2 35 2 35 0 36 C-5.25465839 36.44720497 -5.25465839 36.44720497 -7.875 34.875 C-9.52854531 32.11909116 -9.39365568 30.14924548 -9 27 C-7.25035429 24.22115092 -5.48593182 23.79614538 -2.375 22.5625 C1.05171543 21.38882948 1.05171543 21.38882948 2.0625 19 C2.16622058 16.67685348 2.16622058 16.67685348 0 14 C-1.91807787 13.06984743 -1.91807787 13.06984743 -4.0625 12.4375 C-6.22265625 11.74609375 -6.22265625 11.74609375 -8 11 C-9.39935013 8.20129973 -9.25265405 6.09501208 -9 3 C-6.79086995 -0.68188342 -4.01844539 -0.50230567 0 0 Z " fill="#F27150" transform="translate(222,55)"/>
<path d="M0 0 C6 0 6 0 8.5703125 2.15625 C9.37210938 3.0946875 10.17390625 4.033125 11 5 C12.23363281 6.34578125 12.23363281 6.34578125 13.4921875 7.71875 C14.27851563 8.6365625 15.06484375 9.554375 15.875 10.5 C16.67679688 11.4178125 17.47859375 12.335625 18.3046875 13.28125 C20 16 20 16 19.89453125 18.7578125 C19 21 19 21 16.8125 22.375 C14 23 14 23 8 22 C8 30.25 8 38.5 8 47 C5.36 47 2.72 47 0 47 C0 31.49 0 15.98 0 0 Z " fill="#084F9B" transform="translate(127,42)"/>
<path d="M0 0 C10 0 10 0 12.375 1.6953125 C12.91125 2.49710938 13.4475 3.29890625 14 4.125 C14.94359375 5.47078125 14.94359375 5.47078125 15.90625 6.84375 C16.5971875 7.8853125 17.288125 8.926875 18 10 C19.32173339 11.85513322 20.6586654 13.69859927 21.99804688 15.54101562 C24.01949364 18.34580587 26.00621883 21.17547668 28 24 C28.33 16.41 28.66 8.82 29 1 C33.62 1 38.24 1 43 1 C43 18.16 43 35.32 43 53 C42.67 53 42.34 53 42 53 C41.01 28.25 41.01 28.25 40 3 C37.03 2.67 34.06 2.34 31 2 C31 10.25 31 18.5 31 27 C29.68 27 28.36 27 27 27 C25.32421875 25.12890625 25.32421875 25.12890625 23.6875 22.5625 C20.76160649 18.1103287 17.64356515 13.94592634 14.28515625 9.8125 C13 8 13 8 13 6 C9.45633299 3.95557672 7.39797371 3.73299562 3 3 C3 18.51 3 34.02 3 50 C5.64 50 8.28 50 11 50 C11 41.75 11 33.5 11 25 C12.32 25 13.64 25 15 25 C17.125 27.875 17.125 27.875 19 31 C19.66 31.66 20.32 32.32 21 33 C22.06364849 34.52658359 23.10320358 36.0700924 24.125 37.625 C24.66382813 38.44226563 25.20265625 39.25953125 25.7578125 40.1015625 C26.16773438 40.72804687 26.57765625 41.35453125 27 42 C26.67 42.66 26.34 43.32 26 44 C24.93563167 42.64730134 23.87362059 41.29274784 22.8125 39.9375 C22.22082031 39.18339844 21.62914062 38.42929688 21.01953125 37.65234375 C18.60949515 34.48713193 16.31233764 31.2372727 14 28 C13.67 36.25 13.34 44.5 13 53 C8.71 53 4.42 53 0 53 C0 35.51 0 18.02 0 0 Z " fill="#15508E" transform="translate(124,39)"/>
<path d="M0 0 C4.83717477 2.10651159 7.58048668 5.34404617 9.65625 10.08984375 C11.05344973 13.97742264 12.31874897 17.70875681 11.6875 21.875 C9.6875 23.875 9.6875 23.875 7.07373047 24.10205078 C5.99494629 24.09157715 4.91616211 24.08110352 3.8046875 24.0703125 C2.63808594 24.06386719 1.47148437 24.05742188 0.26953125 24.05078125 C-0.95378906 24.03402344 -2.17710937 24.01726562 -3.4375 24 C-4.66855469 23.99097656 -5.89960938 23.98195313 -7.16796875 23.97265625 C-10.21633815 23.94902548 -13.26432382 23.91608054 -16.3125 23.875 C-15.3225 20.41 -15.3225 20.41 -14.3125 16.875 C-4.90247722 15.72693622 -4.90247722 15.72693622 -0.3125 15.875 C0.3475 12.905 1.0075 9.935 1.6875 6.875 C3.0075 7.535 4.3275 8.195 5.6875 8.875 C5.6875 8.215 5.6875 7.555 5.6875 6.875 C0.11575084 1.9056021 -4.1219214 1.58154076 -11.36328125 1.66015625 C-16.37952321 2.02557785 -19.11160099 3.64074269 -22.5625 7.1875 C-25.88387231 12.28817891 -26.84381076 16.81805733 -26.3125 22.875 C-24.76523978 27.43941766 -23.25224207 31.00005308 -19.3125 33.875 C-12.01862448 36.30629184 -4.85882205 36.71556635 2.6875 34.875 C3.0175 34.215 3.3475 33.555 3.6875 32.875 C4.6775 32.875 5.6675 32.875 6.6875 32.875 C6.6875 31.885 6.6875 30.895 6.6875 29.875 C5.25109829 29.67926392 3.81330496 29.49372184 2.375 29.3125 C1.57449219 29.20808594 0.77398437 29.10367188 -0.05078125 28.99609375 C-2.48067116 28.72744822 -2.48067116 28.72744822 -5.3125 29.875 C-7.35546875 29.75390625 -7.35546875 29.75390625 -9.5 29.4375 C-10.758125 29.251875 -12.01625 29.06625 -13.3125 28.875 C-13.3125 28.215 -13.3125 27.555 -13.3125 26.875 C-12.66023437 26.88660156 -12.00796875 26.89820312 -11.3359375 26.91015625 C-5.65776307 26.98045783 -5.65776307 26.98045783 -0.0625 26.125 C3.87316701 25.76721209 5.67024231 27.50429753 8.6875 29.875 C8.375 31.8125 8.375 31.8125 7.6875 33.875 C6.6975 34.205 5.7075 34.535 4.6875 34.875 C4.6875 35.535 4.6875 36.195 4.6875 36.875 C-2.53861861 39.50267949 -10.40751961 40.22399322 -17.75 37.6875 C-22.92428727 34.02763827 -26.78023545 30.16907132 -28.3125 23.875 C-29.18036087 16.6992723 -28.71755135 11.6711202 -24.3125 5.875 C-17.20429125 -1.25221466 -9.65004861 -3.09460762 0 0 Z " fill="#0A519B" transform="translate(200.3125,54.125)"/>
<path d="M0 0 C0 12.54 0 25.08 0 38 C-3.96 38 -7.92 38 -12 38 C-12 25.79 -12 13.58 -12 1 C-10 0 -10 0 0 0 Z " fill="#084F9B" transform="translate(83,54)"/>
<path d="M0 0 C0 2.33333333 0 4.66666667 0 7 C0.66 7.33 1.32 7.66 2 8 C0.7260411 10.03833424 -0.61061923 12.03852126 -2 14 C-2.66 14 -3.32 14 -4 14 C-4.33 14.99 -4.66 15.98 -5 17 C1.93 17.495 1.93 17.495 9 18 C9 20.64 9 23.28 9 26 C-0.24 26 -9.48 26 -19 26 C-19 19.25 -19 19.25 -16.5 15.125 C-16.0359375 14.34382813 -15.571875 13.56265625 -15.09375 12.7578125 C-14.55234375 11.88769531 -14.55234375 11.88769531 -14 11 C-13.34 11 -12.68 11 -12 11 C-11.7525 10.46375 -11.505 9.9275 -11.25 9.375 C-9.6859619 6.4033276 -8.01623538 3.68831383 -6 1 C-5.01 1 -4.02 1 -3 1 C-3 1.99 -3 2.98 -3 4 C-2.01 2.68 -1.02 1.36 0 0 Z " fill="#094F97" transform="translate(108,65)"/>
<path d="M0 0 C1.63671875 0.82421875 1.63671875 0.82421875 3.88671875 2.32421875 C3.88671875 2.98421875 3.88671875 3.64421875 3.88671875 4.32421875 C4.87671875 4.65421875 5.86671875 4.98421875 6.88671875 5.32421875 C6.55671875 6.31421875 6.22671875 7.30421875 5.88671875 8.32421875 C4.89671875 7.66421875 3.90671875 7.00421875 2.88671875 6.32421875 C2.64888672 7.17306641 2.64888672 7.17306641 2.40625 8.0390625 C2.17292969 8.77253906 1.93960938 9.50601563 1.69921875 10.26171875 C1.47878906 10.99261719 1.25835937 11.72351563 1.03125 12.4765625 C-0.11328125 14.32421875 -0.11328125 14.32421875 -2.36328125 15.07421875 C-5.23761694 15.33552199 -8.03977568 15.4214899 -10.92578125 15.38671875 C-11.90160156 15.37769531 -12.87742188 15.36867188 -13.8828125 15.359375 C-14.61886719 15.34777344 -15.35492188 15.33617188 -16.11328125 15.32421875 C-17.23828125 10.57421875 -17.23828125 10.57421875 -16.11328125 8.32421875 C-18.75328125 8.32421875 -21.39328125 8.32421875 -24.11328125 8.32421875 C-22.3813067 4.46058321 -20.75340321 2.10700423 -16.87890625 0.2578125 C-11.65444366 -1.50581258 -5.28410224 -1.68974064 0 0 Z " fill="#0E5097" transform="translate(200.11328125,55.67578125)"/>
<path d="M0 0 C0.33 0 0.66 0 1 0 C1.33 2.31 1.66 4.62 2 7 C2.62648437 7.15855469 3.25296875 7.31710938 3.8984375 7.48046875 C10.55560077 9.38101536 10.55560077 9.38101536 12.75 12.4375 C13 15 13 15 12.0625 17.125 C9.33370536 19.6057224 6.41482468 20.67201262 3 22 C1.66812207 23.11166864 1.66812207 23.11166864 1.8125 25.9375 C1.66721267 29.10892859 1.66721267 29.10892859 4 31 C6.68839385 31.26991906 9.29141936 31.08737357 12 31 C12.268125 29.88625 12.53625 28.7725 12.8125 27.625 C14 24 14 24 17 22 C17.495 23.485 17.495 23.485 18 25 C17.01 25.495 17.01 25.495 16 26 C15.38125 27.4540625 15.38125 27.4540625 14.75 28.9375 C13 32 13 32 10.1875 33.4375 C6.7865654 34.03766493 4.3414142 33.79557481 1 33 C1 32.01 1 31.02 1 30 C-2.96 30.495 -2.96 30.495 -7 31 C-6.505 30.566875 -6.01 30.13375 -5.5 29.6875 C-3.66781808 28.00259517 -3.66781808 28.00259517 -4 25 C-6.10757373 23.10078281 -6.10757373 23.10078281 -9 22 C-11.89160979 22.2730774 -11.89160979 22.2730774 -15 23 C-19.31568156 23.31177928 -22.2686071 23.48759527 -26 21 C-26 20.34 -26 19.68 -26 19 C-25.2886792 18.97494385 -24.5773584 18.9498877 -23.84448242 18.92407227 C-20.62530483 18.80811561 -17.40642015 18.68538755 -14.1875 18.5625 C-12.50817383 18.50352539 -12.50817383 18.50352539 -10.79492188 18.44335938 C-9.72177734 18.40146484 -8.64863281 18.35957031 -7.54296875 18.31640625 C-6.55321045 18.27974854 -5.56345215 18.24309082 -4.54370117 18.20532227 C-1.8781649 18.09209669 -1.8781649 18.09209669 1 17 C0.85957123 15.35369672 0.71250671 13.70795821 0.5625 12.0625 C0.48128906 11.14597656 0.40007812 10.22945312 0.31640625 9.28515625 C0.23955024 7.03840268 0.23955024 7.03840268 -1 6 C-1.125 3.5 -1.125 3.5 -1 1 C-0.67 0.67 -0.34 0.34 0 0 Z " fill="#0B0404" transform="translate(212,59)"/>
<path d="M0 0 C1.18529297 -0.02900391 2.37058594 -0.05800781 3.59179688 -0.08789062 C14.55166563 -0.16779993 14.55166563 -0.16779993 19.3125 4.3125 C20.6875 6.5625 20.6875 6.5625 21.3125 8.3125 C20.384375 8.10625 19.45625 7.9 18.5 7.6875 C15.16076598 6.94557034 15.16076598 6.94557034 12.3125 9.3125 C12.06234127 12.89607241 12.06234127 12.89607241 12.3125 16.3125 C13.3025 16.3125 14.2925 16.3125 15.3125 16.3125 C15.3125 16.9725 15.3125 17.6325 15.3125 18.3125 C11.26607054 20.23683581 8.02301943 20.5555042 3.5625 20.5 C2.41265625 20.49355469 1.2628125 20.48710938 0.078125 20.48046875 C-2.6875 20.3125 -2.6875 20.3125 -3.6875 19.3125 C-3.82865161 16.64191149 -3.72997107 13.98817762 -3.6875 11.3125 C1.7575 10.8175 1.7575 10.8175 7.3125 10.3125 C6.6525 9.6525 5.9925 8.9925 5.3125 8.3125 C9.0625 4.4375 9.0625 4.4375 11.3125 3.3125 C4.03239011 0.8857967 -4.01359038 2.3125 -11.6875 2.3125 C-12.0175 18.1525 -12.3475 33.9925 -12.6875 50.3125 C-13.0175 50.3125 -13.3475 50.3125 -13.6875 50.3125 C-13.71276838 43.35246553 -13.73033222 36.3924428 -13.74243164 29.43237305 C-13.74747341 27.06257688 -13.75430665 24.69278385 -13.76293945 22.32299805 C-13.7750119 18.92495961 -13.78072971 15.52696215 -13.78515625 12.12890625 C-13.79031754 11.06225235 -13.79547882 9.99559845 -13.80079651 8.8966217 C-13.80087204 7.91568039 -13.80094757 6.93473907 -13.80102539 5.92407227 C-13.803246 5.05581314 -13.80546661 4.18755402 -13.80775452 3.29298401 C-13.4792339 -2.11745589 -4.02887125 0.03233444 0 0 Z " fill="#114E8F" transform="translate(41.6875,39.6875)"/>
<path d="M0 0 C2.27645169 1.30082954 2.84615552 2.50943931 3.62109375 4.98046875 C4.13279449 6.97433713 4.57094234 8.98672945 5 11 C5.804375 11.144375 6.60875 11.28875 7.4375 11.4375 C10 12 10 12 11 13 C11.07205511 14.68608966 11.08386068 16.37500659 11.0625 18.0625 C11.05347656 18.98160156 11.04445312 19.90070313 11.03515625 20.84765625 C11.02355469 21.55792969 11.01195312 22.26820312 11 23 C10.01 23.33 9.02 23.66 8 24 C7.67 23.01 7.34 22.02 7 21 C6.01 20.67 5.02 20.34 4 20 C3.9484375 19.22011719 3.896875 18.44023438 3.84375 17.63671875 C3.26717927 14.77169479 3.26717927 14.77169479 0.53125 13.70703125 C-0.96921875 13.26423828 -0.96921875 13.26423828 -2.5 12.8125 C-4.34746174 12.25302383 -6.18514623 11.65759733 -8 11 C-9.39935013 8.20129973 -9.25265405 6.09501208 -9 3 C-6.79086995 -0.68188342 -4.01844539 -0.50230567 0 0 Z " fill="#F49344" transform="translate(222,55)"/>
<path d="M0 0 C4.09923607 1.72118026 6.14200449 4.29539694 8.6875 7.875 C8.3575 8.535 8.0275 9.195 7.6875 9.875 C6.54817708 8.37760417 5.40885417 6.88020833 4.26953125 5.3828125 C-0.16086587 1.16026117 -5.6797041 1.5120402 -11.43359375 1.625 C-16.40480682 2.05669286 -19.13562255 3.66543151 -22.5625 7.1875 C-25.88387231 12.28817891 -26.84381076 16.81805733 -26.3125 22.875 C-24.76523978 27.43941766 -23.25224207 31.00005308 -19.3125 33.875 C-12.01862448 36.30629184 -4.85882205 36.71556635 2.6875 34.875 C3.0175 34.215 3.3475 33.555 3.6875 32.875 C4.6775 32.875 5.6675 32.875 6.6875 32.875 C6.6875 31.885 6.6875 30.895 6.6875 29.875 C5.25109829 29.67926392 3.81330496 29.49372184 2.375 29.3125 C1.57449219 29.20808594 0.77398437 29.10367188 -0.05078125 28.99609375 C-2.48067116 28.72744822 -2.48067116 28.72744822 -5.3125 29.875 C-7.35546875 29.75390625 -7.35546875 29.75390625 -9.5 29.4375 C-10.758125 29.251875 -12.01625 29.06625 -13.3125 28.875 C-13.3125 28.215 -13.3125 27.555 -13.3125 26.875 C-12.66023437 26.88660156 -12.00796875 26.89820312 -11.3359375 26.91015625 C-5.65776307 26.98045783 -5.65776307 26.98045783 -0.0625 26.125 C3.87316701 25.76721209 5.67024231 27.50429753 8.6875 29.875 C8.375 31.8125 8.375 31.8125 7.6875 33.875 C6.6975 34.205 5.7075 34.535 4.6875 34.875 C4.6875 35.535 4.6875 36.195 4.6875 36.875 C-2.53861861 39.50267949 -10.40751961 40.22399322 -17.75 37.6875 C-22.92428727 34.02763827 -26.78023545 30.16907132 -28.3125 23.875 C-29.18036087 16.6992723 -28.71755135 11.6711202 -24.3125 5.875 C-17.20429125 -1.25221466 -9.65004861 -3.09460762 0 0 Z " fill="#285483" transform="translate(200.3125,54.125)"/>
<path d="M0 0 C0.99 0.66 1.98 1.32 3 2 C3 2.66 3 3.32 3 4 C3.99 4.33 4.98 4.66 6 5 C6.33 8.63 6.66 12.26 7 16 C9.31 16 11.62 16 14 16 C14 18.31 14 20.62 14 23 C10.04 23 6.08 23 2 23 C-2.06037942 16.40188345 -2.98410738 10.72409859 -2 3 C-1.34 2.01 -0.68 1.02 0 0 Z " fill="#074F9B" transform="translate(261,67)"/>
<path d="M0 0 C2.97 0 5.94 0 9 0 C9 12.54 9 25.08 9 38 C5.04 38 1.08 38 -3 38 C-3 25.79 -3 13.58 -3 1 C-2.01 1.495 -2.01 1.495 -1 2 C-0.67 13.22 -0.34 24.44 0 36 C2.31 36 4.62 36 7 36 C6.67 24.78 6.34 13.56 6 2 C3.03 1.505 3.03 1.505 0 1 C0 0.67 0 0.34 0 0 Z " fill="#2F5F93" transform="translate(74,54)"/>
<path d="M0 0 C3.3 0 6.6 0 10 0 C9.67 0.66 9.34 1.32 9 2 C6.69 2 4.38 2 2 2 C2 18.17 2 34.34 2 51 C5.3 51 8.6 51 12 51 C12 43.74 12 36.48 12 29 C12.33 29 12.66 29 13 29 C13 36.92 13 44.84 13 53 C8.71 53 4.42 53 0 53 C0 35.51 0 18.02 0 0 Z " fill="#1C456F" transform="translate(124,39)"/>
<path d="M0 0 C2.23551759 3.35327639 2.17283528 3.90743657 1.625 7.6875 C1.45871094 8.89986328 1.45871094 8.89986328 1.2890625 10.13671875 C1.19367188 10.75160156 1.09828125 11.36648437 1 12 C-6.09530938 13.44311377 -6.09530938 13.44311377 -10.0625 11.5 C-12 9 -12 9 -12.0625 5.4375 C-11 2 -11 2 -9.375 0 C-5.92336696 -1.45331917 -3.57190516 -0.92604949 0 0 Z " fill="#184F8F" transform="translate(82,39)"/>
<path d="M0 0 C0.91644287 0.00523682 1.83288574 0.01047363 2.77709961 0.01586914 C3.76645508 0.0190918 4.75581055 0.02231445 5.77514648 0.02563477 C6.81606445 0.03401367 7.85698242 0.04239258 8.92944336 0.05102539 C10.49662109 0.05779297 10.49662109 0.05779297 12.09545898 0.06469727 C14.68600996 0.07652627 17.27644895 0.0930085 19.86694336 0.11352539 C19.86694336 0.44352539 19.86694336 0.77352539 19.86694336 1.11352539 C9.47194336 1.60852539 9.47194336 1.60852539 -1.13305664 2.11352539 C-1.13305664 18.28352539 -1.13305664 34.45352539 -1.13305664 51.11352539 C13.9172238 51.3210249 13.9172238 51.3210249 28.86694336 50.11352539 C29.19694336 48.79352539 29.52694336 47.47352539 29.86694336 46.11352539 C30.85694336 46.11352539 31.84694336 46.11352539 32.86694336 46.11352539 C32.86694336 44.46352539 32.86694336 42.81352539 32.86694336 41.11352539 C33.52694336 41.11352539 34.18694336 41.11352539 34.86694336 41.11352539 C34.86694336 38.47352539 34.86694336 35.83352539 34.86694336 33.11352539 C35.19694336 33.11352539 35.52694336 33.11352539 35.86694336 33.11352539 C36.22586881 38.15842194 36.45120591 41.9658668 34.11694336 46.55102539 C31.20125468 49.87167083 29.0625639 51.71498521 24.86694336 53.11352539 C22.72899811 53.19690579 20.58852327 53.22086286 18.44897461 53.21118164 C17.19536133 53.20795898 15.94174805 53.20473633 14.65014648 53.20141602 C13.33981445 53.19303711 12.02948242 53.1846582 10.67944336 53.17602539 C9.34415855 53.17100856 8.00887195 53.16644598 6.67358398 53.16235352 C3.40465863 53.15055234 0.13582345 53.13408836 -3.13305664 53.11352539 C-3.15832357 45.72624437 -3.17588824 38.33897441 -3.18798828 30.95166016 C-3.19303027 28.43635644 -3.19986367 25.92105567 -3.20849609 23.40576172 C-3.22056758 19.79922764 -3.22628613 16.19273217 -3.23071289 12.58618164 C-3.23587418 11.4539064 -3.24103546 10.32163116 -3.24635315 9.15504456 C-3.24642868 8.11404099 -3.24650421 7.07303741 -3.24658203 6.00048828 C-3.24880264 5.07893448 -3.25102325 4.15738068 -3.25331116 3.207901 C-3.08902598 0.34667902 -2.86275953 0.15236159 0 0 Z " fill="#224971" transform="translate(30.133056640625,38.886474609375)"/>
<path d="M0 0 C1.9375 1.1875 1.9375 1.1875 3 3 C3.39365568 6.14924548 3.52854531 8.11909116 1.875 10.875 C-0.88090884 12.52854531 -2.85075452 12.39365568 -6 12 C-8.40870101 10.42188554 -8.90347249 9.31371441 -9.75 6.5625 C-9.99909586 4.00926741 -9.9345815 2.37893473 -9 0 C-5.85000502 -1.57499749 -3.36459118 -0.70833498 0 0 Z " fill="#DB4365" transform="translate(246,79)"/>
<path d="M0 0 C4.62 0 9.24 0 14 0 C14 17.16 14 34.32 14 52 C13.67 52 13.34 52 13 52 C12.34 35.5 11.68 19 11 2 C8.03 1.67 5.06 1.34 2 1 C1.67 8.92 1.34 16.84 1 25 C0.34 24.67 -0.32 24.34 -1 24 C-0.67 16.08 -0.34 8.16 0 0 Z " fill="#183A5F" transform="translate(153,40)"/>
<path d="M0 0 C0.66 1.32 1.32 2.64 2 4 C1.34 4.66 0.68 5.32 0 6 C-0.64767793 8.57061311 -0.64767793 8.57061311 -1 11 C-7.0546875 11.9765625 -7.0546875 11.9765625 -9 12 C-11 10 -11 10 -11.3125 7.0625 C-11 4 -11 4 -9.6875 2.1875 C-6.52064738 -0.04102592 -3.74110403 -0.10111092 0 0 Z " fill="#EB8B43" transform="translate(224,78)"/>
<path d="M0 0 C4.92127034 -0.16682272 8.50343896 -0.24828052 13 2 C13 3.98 13 5.96 13 8 C10.35541621 9.32229189 8.32238699 9.09677194 5.375 9.0625 C4.37210938 9.05347656 3.36921875 9.04445313 2.3359375 9.03515625 C1.56507812 9.02355469 0.79421875 9.01195313 0 9 C0 6.03 0 3.06 0 0 Z " fill="#00030A" transform="translate(40,71)"/>
<path d="M0 0 C2.45526122 2.45526122 2.41457598 3.60629818 2.75 7 C2.89695313 8.3303125 2.89695313 8.3303125 3.046875 9.6875 C3 12 3 12 1 14 C-1.61376953 14.22705078 -1.61376953 14.22705078 -4.8828125 14.1953125 C-6.04941406 14.18886719 -7.21601563 14.18242188 -8.41796875 14.17578125 C-9.64128906 14.15902344 -10.86460937 14.14226562 -12.125 14.125 C-13.35605469 14.11597656 -14.58710938 14.10695313 -15.85546875 14.09765625 C-18.90383815 14.07402548 -21.95182382 14.04108054 -25 14 C-24.34 11.69 -23.68 9.38 -23 7 C-21.35 7 -19.7 7 -18 7 C-17.67 7.99 -17.34 8.98 -17 10 C-17.33 10.33 -17.66 10.66 -18 11 C-11.73 11.33 -5.46 11.66 1 12 C0.67 8.04 0.34 4.08 0 0 Z " fill="#22568D" transform="translate(209,64)"/>
<path d="M0 0 C5.4 -0.36 5.4 -0.36 7.875 1.125 C9.52854531 3.88090884 9.39365568 5.85075452 9 9 C6.87151333 12.31097927 3.65223694 12.94490933 0 14 C0.66 10.04 1.32 6.08 2 2 C1.01 2.33 0.02 2.66 -1 3 C-0.67 2.01 -0.34 1.02 0 0 Z " fill="#DE5F72" transform="translate(240,55)"/>
<path d="M0 0 C0.33 0 0.66 0 1 0 C1 4.62 1 9.24 1 14 C3.64 14.33 6.28 14.66 9 15 C9 18.63 9 22.26 9 26 C6.93816367 26.08150744 4.87538651 26.1394194 2.8125 26.1875 C1.08966797 26.23970703 1.08966797 26.23970703 -0.66796875 26.29296875 C-4.31269023 25.97250672 -6.13263019 25.23486176 -9 23 C-9.8125 20.3125 -9.8125 20.3125 -10 18 C-9.13375 19.2065625 -9.13375 19.2065625 -8.25 20.4375 C-4.26488136 24.55042128 1.62799777 23.90575435 7 24 C7 21.69 7 19.38 7 17 C4.69 17 2.38 17 0 17 C0 11.39 0 5.78 0 0 Z " fill="#2A5684" transform="translate(268,66)"/>
<path d="M0 0 C1.22589844 0.15275391 1.22589844 0.15275391 2.4765625 0.30859375 C3.41628906 0.43427734 3.41628906 0.43427734 4.375 0.5625 C4.705 2.2125 5.035 3.8625 5.375 5.5625 C2.06429162 6.56359515 -0.92584769 6.66606134 -4.375 6.625 C-5.35984375 6.61597656 -6.3446875 6.60695313 -7.359375 6.59765625 C-8.10703125 6.58605469 -8.8546875 6.57445313 -9.625 6.5625 C-9.955 4.9125 -10.285 3.2625 -10.625 1.5625 C-10.00625 1.418125 -9.3875 1.27375 -8.75 1.125 C-3.02884615 -0.38942308 -3.02884615 -0.38942308 0 0 Z " fill="#134171" transform="translate(193.625,64.4375)"/>
<path d="M0 0 C7.38461538 -0.36923077 7.38461538 -0.36923077 10.5 1.5 C10.995 1.995 11.49 2.49 12 3 C11.34 4.65 10.68 6.3 10 8 C6.7 8 3.4 8 0 8 C0 5.36 0 2.72 0 0 Z " fill="#01040C" transform="translate(40,51)"/>
<path d="M0 0 C0 3.3 0 6.6 0 10 C2.31 10 4.62 10 7 10 C7 10.33 7 10.66 7 11 C4.36 11 1.72 11 -1 11 C-1.144375 10.2575 -1.28875 9.515 -1.4375 8.75 C-1.90187492 6.47972261 -2.41863569 4.24240521 -3 2 C-6.53647504 3.67517239 -7.7911563 4.49280817 -9.3125 8.1875 C-9.539375 9.115625 -9.76625 10.04375 -10 11 C-11.98 11.33 -13.96 11.66 -16 12 C-16.33 14.64 -16.66 17.28 -17 20 C-17.33 20 -17.66 20 -18 20 C-18 16.7 -18 13.4 -18 10 C-16.02 10 -14.04 10 -12 10 C-12.103125 9.071875 -12.20625 8.14375 -12.3125 7.1875 C-12.209375 6.135625 -12.10625 5.08375 -12 4 C-8.1601673 0.9904014 -4.8718961 0 0 0 Z " fill="#325E8C" transform="translate(269,44)"/>
<path d="M0 0 C-0.11442461 1.60495567 -0.24194694 3.20898119 -0.375 4.8125 C-0.44460937 5.70582031 -0.51421875 6.59914063 -0.5859375 7.51953125 C-1 10 -1 10 -3 13 C-3.24055468 15.05709596 -3.24055468 15.05709596 -3.125 17.1875 C-3.08375 18.445625 -3.0425 19.70375 -3 21 C-3.66 21 -4.32 21 -5 21 C-8.72865587 8.28432743 -8.72865587 8.28432743 -6.875 3.75 C-4.78929621 0.69096777 -3.70112039 0 0 0 Z " fill="#E7605F" transform="translate(242,57)"/>
<path d="M0 0 C4.41863719 1.52050102 6.42617605 4.99166185 8.9375 8.6875 C9.35451172 9.28755859 9.77152344 9.88761719 10.20117188 10.50585938 C11.04323208 11.71754106 11.88097458 12.93223483 12.71435547 14.14990234 C14.04848613 16.06977362 15.43103187 17.94891757 16.81640625 19.83203125 C19 23 19 23 19 25 C19.66 25 20.32 25 21 25 C21 17.74 21 10.48 21 3 C21.33 3 21.66 3 22 3 C22 10.59 22 18.18 22 26 C20.68 26 19.36 26 18 26 C16.359375 24.19921875 16.359375 24.19921875 14.75 21.6875 C12.17235817 17.77659516 9.53454834 13.9548301 6.75 10.1875 C4.30754318 6.88041346 2.0676496 3.55457045 0 0 Z " fill="#235181" transform="translate(133,40)"/>
<path d="M0 0 C1 1 1 1 1.09765625 3.28515625 C1.08605469 4.20167969 1.07445312 5.11820312 1.0625 6.0625 C1.05347656 6.98160156 1.04445312 7.90070313 1.03515625 8.84765625 C1.02355469 9.55792969 1.01195312 10.26820312 1 11 C0.01 11.33 -0.98 11.66 -2 12 C-2.33 11.01 -2.66 10.02 -3 9 C-3.99 8.67 -4.98 8.34 -6 8 C-6.185625 6.824375 -6.185625 6.824375 -6.375 5.625 C-6.79117993 2.85942178 -6.79117993 2.85942178 -9 1 C-5.92954549 0.0902357 -3.20049657 -0.17299981 0 0 Z " fill="#F9884A" transform="translate(232,67)"/>
<path d="M0 0 C7.92 0 15.84 0 24 0 C22.68 0.33 21.36 0.66 20 1 C19.67 1.99 19.34 2.98 19 4 C18.05125 3.814375 17.1025 3.62875 16.125 3.4375 C13.10131207 2.71313368 13.10131207 2.71313368 11 4 C3.53333333 4.35555556 3.53333333 4.35555556 0 2 C0 1.34 0 0.68 0 0 Z " fill="#010511" transform="translate(186,78)"/>
<path d="M0 0 C0.33 0 0.66 0 1 0 C1.35892545 5.04489655 1.58426255 8.85234141 -0.75 13.4375 C-3.66568868 16.75814544 -5.80437946 18.60145982 -10 20 C-11.9920303 20.08291953 -13.98673713 20.10738177 -15.98046875 20.09765625 C-17.14384766 20.09443359 -18.30722656 20.09121094 -19.50585938 20.08789062 C-20.72080078 20.07951172 -21.93574219 20.07113281 -23.1875 20.0625 C-24.41404297 20.05798828 -25.64058594 20.05347656 -26.90429688 20.04882812 C-29.93624668 20.03703065 -32.96809906 20.02056921 -36 20 C-36 19.67 -36 19.34 -36 19 C-35.33991943 18.97494385 -34.67983887 18.9498877 -33.99975586 18.92407227 C-30.97884631 18.80728248 -27.95818578 18.68493554 -24.9375 18.5625 C-23.89916016 18.52318359 -22.86082031 18.48386719 -21.79101562 18.44335938 C-16.45969359 18.22333656 -11.26310107 17.8883816 -6 17 C-5.67 15.68 -5.34 14.36 -5 13 C-4.01 13 -3.02 13 -2 13 C-2 11.35 -2 9.7 -2 8 C-1.34 8 -0.68 8 0 8 C0 5.36 0 2.72 0 0 Z " fill="#2F5B8A" transform="translate(65,72)"/>
<path d="M0 0 C5 5 5 5 5 8 C4.01 7.34 3.02 6.68 2 6 C2.33 12.27 2.66 18.54 3 25 C2.01 25.33 1.02 25.66 0 26 C0 17.42 0 8.84 0 0 Z " fill="#000512" transform="translate(137,66)"/>
<path d="M0 0 C0 0.33 0 0.66 0 1 C-1.65 1 -3.3 1 -5 1 C-4.855625 2.258125 -4.71125 3.51625 -4.5625 4.8125 C-4.44068359 5.87404297 -4.44068359 5.87404297 -4.31640625 6.95703125 C-4.02829265 9.19396393 -4.02829265 9.19396393 -3 12 C-4.65 11.67 -6.3 11.34 -8 11 C-10.51969981 3.29268293 -10.51969981 3.29268293 -9 0 C-5.93109813 -1.53445094 -3.29905734 -0.54984289 0 0 Z " fill="#D95554" transform="translate(246,79)"/>
<path d="M0 0 C1.09054688 0.02320312 2.18109375 0.04640625 3.3046875 0.0703125 C4.40039062 0.08835937 5.49609375 0.10640625 6.625 0.125 C7.46804687 0.14820312 8.31109375 0.17140625 9.1796875 0.1953125 C9.1796875 0.8553125 9.1796875 1.5153125 9.1796875 2.1953125 C9.8396875 2.1953125 10.4996875 2.1953125 11.1796875 2.1953125 C11.1796875 4.1753125 11.1796875 6.1553125 11.1796875 8.1953125 C10.97601563 7.56109375 10.77234375 6.926875 10.5625 6.2734375 C9.30746879 3.90466685 9.30746879 3.90466685 6.359375 3.3671875 C5.26882812 3.22796875 4.17828125 3.08875 3.0546875 2.9453125 C1.95898438 2.79578125 0.86328125 2.64625 -0.265625 2.4921875 C-1.10867187 2.39421875 -1.95171875 2.29625 -2.8203125 2.1953125 C-2.8203125 5.1653125 -2.8203125 8.1353125 -2.8203125 11.1953125 C-3.4803125 11.1953125 -4.1403125 11.1953125 -4.8203125 11.1953125 C-4.87430986 9.73738366 -4.91310427 8.27888538 -4.9453125 6.8203125 C-4.98011719 5.60214844 -4.98011719 5.60214844 -5.015625 4.359375 C-4.69543154 0.81163142 -3.4204179 0.23687105 0 0 Z " fill="#214D7B" transform="translate(42.8203125,68.8046875)"/>
<path d="M0 0 C0.66 0.99 1.32 1.98 2 3 C1.01 3.495 1.01 3.495 0 4 C-0.4125 4.969375 -0.825 5.93875 -1.25 6.9375 C-3 10 -3 10 -5.8125 11.4375 C-9.2134346 12.03766493 -11.6585858 11.79557481 -15 11 C-15 10.01 -15 9.02 -15 8 C-15.66 7.67 -16.32 7.34 -17 7 C-16.67 5.35 -16.34 3.7 -16 2 C-15.67 2 -15.34 2 -15 2 C-14.690625 2.969375 -14.38125 3.93875 -14.0625 4.9375 C-13.30476658 7.84065792 -13.30476658 7.84065792 -12 9 C-9.32941149 9.14115161 -6.67567762 9.04247107 -4 9 C-3.71125 7.88625 -3.4225 6.7725 -3.125 5.625 C-2 2 -2 2 0 0 Z " fill="#1D0804" transform="translate(228,81)"/>
<path d="M0 0 C4 4.625 4 4.625 4 8 C3.1953125 10.0078125 3.1953125 10.0078125 2.125 12.125 C1.60292969 13.18074219 1.60292969 13.18074219 1.0703125 14.2578125 C0 16 0 16 -2 17 C-3.99960012 17.039992 -6.00047242 17.04346799 -8 17 C-5.35261084 15.5393715 -4.10551666 15 -1 15 C-1.061875 13.8553125 -1.061875 13.8553125 -1.125 12.6875 C-1 10 -1 10 1 7 C0.01 5.68 -0.98 4.36 -2 3 C-1.34 2.01 -0.68 1.02 0 0 Z " fill="#D4835D" transform="translate(224,74)"/>
<path d="M0 0 C2.92509086 3.90012114 3.47535095 5.38308839 4 10 C4.99 10.33 5.98 10.66 7 11 C-0.38461538 13.21538462 -0.38461538 13.21538462 -3.5 12.125 C-3.995 11.75375 -4.49 11.3825 -5 11 C-3.68 10.67 -2.36 10.34 -1 10 C-0.67 6.7 -0.34 3.4 0 0 Z " fill="#CA6E4C" transform="translate(223,56)"/>
<path d="M0 0 C0.66 0 1.32 0 2 0 C2.93835574 4.77708378 3.36321875 7.74901118 1.375 12.25 C0.92125 13.4875 0.4675 14.725 0 16 C1.26352052 18.32511472 1.26352052 18.32511472 3 20 C2.67 20.99 2.34 21.98 2 23 C1.67 21.68 1.34 20.36 1 19 C0.34 19 -0.32 19 -1 19 C-2.25126646 13.49442756 -2.25126646 13.49442756 -1.03125 11.09375 C0.18456839 8.62527025 0.20533979 6.9815528 0.125 4.25 C0.10695312 3.45078125 0.08890625 2.6515625 0.0703125 1.828125 C0.04710937 1.22484375 0.02390625 0.6215625 0 0 Z " fill="#275582" transform="translate(62,49)"/>
<path d="M0 0 C1.22589844 0.15275391 1.22589844 0.15275391 2.4765625 0.30859375 C3.41628906 0.43427734 3.41628906 0.43427734 4.375 0.5625 C4.375 1.5525 4.375 2.5425 4.375 3.5625 C0.745 3.5625 -2.885 3.5625 -6.625 3.5625 C-6.625 2.5725 -6.625 1.5825 -6.625 0.5625 C-4.10446405 -0.69776798 -2.7707902 -0.35624445 0 0 Z " fill="#020712" transform="translate(193.625,64.4375)"/>
<path d="M0 0 C0 3.96 0 7.92 0 12 C-2.64 12 -5.28 12 -8 12 C-8 11.34 -8 10.68 -8 10 C-6.02 10 -4.04 10 -2 10 C-2 7.36 -2 4.72 -2 2 C-3.32 1.67 -4.64 1.34 -6 1 C-1.125 0 -1.125 0 0 0 Z " fill="#224B78" transform="translate(277,54)"/>
<path d="M0 0 C1.2065625 0.0309375 1.2065625 0.0309375 2.4375 0.0625 C2.4375 0.7225 2.4375 1.3825 2.4375 2.0625 C1.1175 2.0625 -0.2025 2.0625 -1.5625 2.0625 C-1.5625 4.0425 -1.5625 6.0225 -1.5625 8.0625 C-0.2425 8.0625 1.0775 8.0625 2.4375 8.0625 C2.1075 9.0525 1.7775 10.0425 1.4375 11.0625 C-0.2125 10.7325 -1.8625 10.4025 -3.5625 10.0625 C-3.58939216 8.58343108 -3.60884621 7.10422517 -3.625 5.625 C-3.63660156 4.80128906 -3.64820313 3.97757813 -3.66015625 3.12890625 C-3.51340586 0.02366796 -3.12550237 0.07623177 0 0 Z " fill="#144D86" transform="translate(255.5625,54.9375)"/>
<path d="M0 0 C-0.33 0.99 -0.66 1.98 -1 3 C-5.45827926 3.0578304 -9.9164628 3.09353855 -14.375 3.125 C-15.64601563 3.14175781 -16.91703125 3.15851563 -18.2265625 3.17578125 C-19.43828125 3.18222656 -20.65 3.18867187 -21.8984375 3.1953125 C-23.01911621 3.20578613 -24.13979492 3.21625977 -25.29443359 3.22705078 C-28 3 -28 3 -30 1 C-26.04900721 0.85712894 -22.09799792 0.71472426 -18.14697266 0.57275391 C-16.14094158 0.5005736 -14.13492385 0.42802266 -12.12890625 0.35546875 C-10.87207031 0.31035156 -9.61523438 0.26523438 -8.3203125 0.21875 C-7.15773926 0.17685547 -5.99516602 0.13496094 -4.79736328 0.09179688 C-3.19880994 0.03933955 -1.59941382 0 0 0 Z " fill="#010617" transform="translate(57,91)"/>
<path d="M0 0 C1.875 0.625 1.875 0.625 4 2 C5.25 5.125 5.25 5.125 6 8 C4.34385343 8.38218767 2.67542976 8.71395102 1 9 C0 8 0 8 -0.09765625 6.15234375 C-0.06510417 4.1015625 -0.03255208 2.05078125 0 0 Z " fill="#E92C5C" transform="translate(243,56)"/>
<path d="M0 0 C0.66 0 1.32 0 2 0 C2 2.64 2 5.28 2 8 C3.60517097 7.91266424 5.20921662 7.80447776 6.8125 7.6875 C8.15248047 7.60048828 8.15248047 7.60048828 9.51953125 7.51171875 C12.30604 6.93686419 13.24135754 6.1793144 15 4 C14.67 5.65 14.34 7.3 14 9 C11.85423363 9.02685938 9.70837355 9.04633088 7.5625 9.0625 C6.36753906 9.07410156 5.17257813 9.08570313 3.94140625 9.09765625 C1 9 1 9 0 8 C-0.14115161 5.32941149 -0.04247107 2.67567762 0 0 Z " fill="#1D4570" transform="translate(38,51)"/>
<path d="M0 0 C0.7734375 0.495 0.7734375 0.495 1.5625 1 C4.78026512 2.32010877 7.5570528 2.13242105 11 2 C11.33 2.99 11.66 3.98 12 5 C6.06 5.495 6.06 5.495 0 6 C0 4.02 0 2.04 0 0 Z " fill="#02091A" transform="translate(71,49)"/>
<path d="M0 0 C0.66 0.33 1.32 0.66 2 1 C2 3.64 2 6.28 2 9 C-1 9 -1 9 -2.75 7.8125 C-4 6 -4 6 -3.6875 3.3125 C-3.460625 2.549375 -3.23375 1.78625 -3 1 C-2.34 1.66 -1.68 2.32 -1 3 C-0.67 2.01 -0.34 1.02 0 0 Z " fill="#F38134" transform="translate(221,57)"/>
<path d="M0 0 C0.99 0.99 1.98 1.98 3 3 C2.67 3.33 2.34 3.66 2 4 C1.84285346 5.63256758 1.74914586 7.27135338 1.68359375 8.91015625 C1.64169922 9.89951172 1.59980469 10.88886719 1.55664062 11.90820312 C1.51732422 12.94912109 1.47800781 13.99003906 1.4375 15.0625 C1.39431641 16.10728516 1.35113281 17.15207031 1.30664062 18.22851562 C1.20018775 20.81886884 1.0981724 23.40932186 1 26 C0.67 26 0.34 26 0 26 C0 17.42 0 8.84 0 0 Z " fill="#000826" transform="translate(137,66)"/>
<path d="M0 0 C-2.1385485 2.1385485 -3.13275314 2.42655063 -6 3 C-6 5.64 -6 8.28 -6 11 C-6.66 11 -7.32 11 -8 11 C-9.39935013 8.20129973 -9.25265405 6.09501208 -9 3 C-6.77089201 -0.71517998 -4.03410755 -0.2689405 0 0 Z " fill="#C8874E" transform="translate(222,55)"/>
<path d="M0 0 C0.33 0 0.66 0 1 0 C1 4.62 1 9.24 1 14 C2.98 14.66 4.96 15.32 7 16 C7 16.33 7 16.66 7 17 C4.69 17 2.38 17 0 17 C0 11.39 0 5.78 0 0 Z " fill="#184A7F" transform="translate(268,66)"/>
<path d="M0 0 C1.98 0 3.96 0 6 0 C6 0.33 6 0.66 6 1 C4.35 1 2.7 1 1 1 C1.144375 2.258125 1.28875 3.51625 1.4375 4.8125 C1.51871094 5.52019531 1.59992188 6.22789063 1.68359375 6.95703125 C1.97170735 9.19396393 1.97170735 9.19396393 3 12 C1.68 11.67 0.36 11.34 -1 11 C-2.23076923 4.6 -2.23076923 4.6 -1.0625 1.5625 C-0.711875 1.046875 -0.36125 0.53125 0 0 Z " fill="#EE6977" transform="translate(240,79)"/>
<path d="M0 0 C0.99 0.33 1.98 0.66 3 1 C3.33 2.65 3.66 4.3 4 6 C4.99 6 5.98 6 7 6 C7 7.65 7 9.3 7 11 C4.32423308 9.99382318 3.2214892 9.45785454 1.953125 6.8359375 C1.72109375 6.02382812 1.4890625 5.21171875 1.25 4.375 C1.00765625 3.55773437 0.7653125 2.74046875 0.515625 1.8984375 C0.34546875 1.27195312 0.1753125 0.64546875 0 0 Z " fill="#ED8A54" transform="translate(223,69)"/>
<path d="M0 0 C0.99 0.33 1.98 0.66 3 1 C3 2.98 3 4.96 3 7 C1.68 7.33 0.36 7.66 -1 8 C-0.67 5.36 -0.34 2.72 0 0 Z " fill="#F52A5F" transform="translate(244,81)"/>
<path d="M0 0 C1.98 0.495 1.98 0.495 4 1 C3.34 2.98 2.68 4.96 2 7 C1.01 6.67 0.02 6.34 -1 6 C-0.67 4.02 -0.34 2.04 0 0 Z " fill="#F88C2E" transform="translate(227,69)"/>
<path d="M0 0 C0 0.99 0 1.98 0 3 C0.66 3 1.32 3 2 3 C2 3.99 2 4.98 2 6 C2.99 6 3.98 6 5 6 C5 6.66 5 7.32 5 8 C3.68 8.33 2.36 8.66 1 9 C0.731875 8.236875 0.46375 7.47375 0.1875 6.6875 C-0.94424112 4.12619116 -1.91223401 2.80307062 -4 1 C-2 0 -2 0 0 0 Z " fill="#134C8A" transform="translate(52,50)"/>
<path d="M0 0 C1.00259507 3.00778521 1.30314642 5.53820647 1.5625 8.6875 C1.64628906 9.68136719 1.73007813 10.67523438 1.81640625 11.69921875 C1.87699219 12.45847656 1.93757812 13.21773437 2 14 C1.34 14 0.68 14 0 14 C-0.38873828 12.04434742 -0.76060833 10.08533496 -1.125 8.125 C-1.33382812 7.03445312 -1.54265625 5.94390625 -1.7578125 4.8203125 C-1.83773437 3.88960938 -1.91765625 2.95890625 -2 2 C-1.34 1.34 -0.68 0.68 0 0 Z " fill="#DE5C4C" transform="translate(237,64)"/>
<path d="M0 0 C1.33333333 2.66666667 2.66666667 5.33333333 4 8 C1.08517222 8.80967438 -0.46113217 9.21845993 -3.3125 8.0625 C-3.869375 7.711875 -4.42625 7.36125 -5 7 C-3.68 6.67 -2.36 6.34 -1 6 C-0.67 4.02 -0.34 2.04 0 0 Z " fill="#E36E42" transform="translate(223,60)"/>
<path d="M0 0 C4 4.625 4 4.625 4 8 C3.01 8.495 3.01 8.495 2 9 C1.71125 8.38125 1.4225 7.7625 1.125 7.125 C0.06279958 4.86674235 0.06279958 4.86674235 -2 3 C-1.34 2.01 -0.68 1.02 0 0 Z " fill="#D2614E" transform="translate(224,74)"/>
<path d="M0 0 C-0.99 0.495 -0.99 0.495 -2 1 C-2.65213292 3.02463255 -2.65213292 3.02463255 -3 5 C-3.66 4.34 -4.32 3.68 -5 3 C-6.31747324 2.30251417 -7.64914193 1.63040043 -9 1 C-6.04335481 -0.4783226 -3.25770263 -0.06032783 0 0 Z " fill="#E6705E" transform="translate(239,78)"/>
<path d="M0 0 C1 2 1 2 0.375 4.5 C-1 7 -1 7 -6 9 C-4.02 6.03 -2.04 3.06 0 0 Z " fill="#020B1C" transform="translate(116,64)"/>
<path d="M0 0 C0.66 0.33 1.32 0.66 2 1 C-0.475 4.465 -0.475 4.465 -3 8 C-3.66 6.68 -4.32 5.36 -5 4 C-4.0409375 3.8453125 -4.0409375 3.8453125 -3.0625 3.6875 C-2.381875 3.460625 -1.70125 3.23375 -1 3 C-0.67 2.01 -0.34 1.02 0 0 Z " fill="#1D4F85" transform="translate(114,64)"/>
<path d="M0 0 C0.99 0.99 1.98 1.98 3 3 C2.01 5.31 1.02 7.62 0 10 C-0.33 10 -0.66 10 -1 10 C-1.125 2.25 -1.125 2.25 0 0 Z " fill="#F67245" transform="translate(223,78)"/>
<path d="M0 0 C2.97 0.495 2.97 0.495 6 1 C6 1.66 6 2.32 6 3 C3.36 3.99 0.72 4.98 -2 6 C-2 5.34 -2 4.68 -2 4 C-1.34 3.67 -0.68 3.34 0 3 C0 2.01 0 1.02 0 0 Z " fill="#D05165" transform="translate(242,63)"/>
<path d="M0 0 C0.99 0 1.98 0 3 0 C3.33 1.98 3.66 3.96 4 6 C2.68 6.33 1.36 6.66 0 7 C0.33 6.01 0.66 5.02 1 4 C0.61067144 1.85744207 0.61067144 1.85744207 0 0 Z " fill="#124D91" transform="translate(183,78)"/>
<path d="M0 0 C0 0.99 0 1.98 0 3 C-4.455 2.01 -4.455 2.01 -9 1 C-4.82091936 -1.08954032 -4.19589427 -1.16552619 0 0 Z " fill="#1F0608" transform="translate(248,77)"/>
<path d="M0 0 C3.96 0 7.92 0 12 0 C11.34 1.32 10.68 2.64 10 4 C9.67 3.01 9.34 2.02 9 1 C6.03 1 3.06 1 0 1 C0 0.67 0 0.34 0 0 Z " fill="#010719" transform="translate(88,66)"/>
<path d="M0 0 C0.33 0 0.66 0 1 0 C1.185625 1.7015625 1.185625 1.7015625 1.375 3.4375 C1.684375 5.2009375 1.684375 5.2009375 2 7 C2.66 7.33 3.32 7.66 4 8 C3.01 8.33 2.02 8.66 1 9 C-1.14809171 5.77786243 -1.29386153 4.72224599 -1 1 C-0.67 0.67 -0.34 0.34 0 0 Z " fill="#150401" transform="translate(212,59)"/>
<path d="M0 0 C2.33944736 0.28730055 4.6739143 0.61936779 7 1 C7 1.33 7 1.66 7 2 C5.35 2.33 3.7 2.66 2 3 C1.67 5.31 1.34 7.62 1 10 C0.67 10 0.34 10 0 10 C-0.19412181 8.52168779 -0.38012131 7.04230684 -0.5625 5.5625 C-0.66691406 4.73878906 -0.77132812 3.91507813 -0.87890625 3.06640625 C-0.91886719 2.38449219 -0.95882812 1.70257813 -1 1 C-0.67 0.67 -0.34 0.34 0 0 Z " fill="#114D8B" transform="translate(73,54)"/>
<path d="M0 0 C0.99 0.33 1.98 0.66 3 1 C2.67 2.65 2.34 4.3 2 6 C0.35 6.33 -1.3 6.66 -3 7 C-2.2575 6.38125 -2.2575 6.38125 -1.5 5.75 C0.43386092 3.87797662 0.43386092 3.87797662 0 0 Z " fill="#020D16" transform="translate(208,83)"/>
<path d="M0 0 C-0.33 0.99 -0.66 1.98 -1 3 C-2.32 3 -3.64 3 -5 3 C-5.33 3.66 -5.66 4.32 -6 5 C-6.99 4.34 -7.98 3.68 -9 3 C-2.25 0 -2.25 0 0 0 Z " fill="#210507" transform="translate(248,66)"/>
</svg>
